:FULLY-SPECIFIED
:FORCE-ALL-JOINTS-BE-3DOF
:DEGREES
985
root 1.11231 15.1491 32.4943 5.35199 -4.64791 4.13371
lfemur 8.71208 1.73356 5.17588
ltibia 0 0 0
lfoot -30.1281 -11.688 -7.00695e-06
ltoes -33.8552 0 0
rfemur -32.949 -15.5503 -6.26935
rtibia 50.8785 -0 0
rfoot -22.705 4.91138 0.000110021
rtoes -42.086 0 0
lowerback -1.49132 -0.429297 0.646951
upperback -0.733123 -0.577715 -5.91412
thorax 0.0136623 -0.30607 -6.50976
lowerneck -6.62534 1.15334 5.86833
upperneck 1.02502 0.961538 3.36764
head 1.44818 0.581926 0.0955579
lclavicle 0 0 0
lhumerus -58.6013 -45.4358 115.013
lradius 55.1085 -0 0
lwrist 25.3773 0 0
lhand 37.2625 24.4404 2.30643e-05
lfingers 0 0 0
lthumb 60.0898 38.126 8.27482e-06
rclavicle 0 0 0
rhumerus 3.76062 -24.8761 -0.142732
rradius 28.0731 -0 0
rwrist -11.3612 0 0
rhand -31.3127 -44.4035 -6.86013e-05
rfingers 0 0 0
rthumb -4.58514 -74.3337 -6.65089e-05
986
root 1.11498 15.1507 32.4898 5.30704 -4.62332 4.11437
lfemur 8.71432 1.69503 5.18169
ltibia 0 0 0
lfoot -30.13 -11.6604 -6.57361e-06
ltoes -33.8818 0 0
rfemur -32.8622 -15.5773 -6.26131
rtibia 50.7759 -0 0
rfoot -22.7282 4.87753 0.000103217
rtoes -42.2255 0 0
lowerback -1.47255 -0.404047 0.638136
upperback -0.726709 -0.543831 -5.89174
thorax 0.0140903 -0.288739 -6.4802
lowerneck -6.67668 1.16041 5.85712
upperneck 1.08949 0.964457 3.38029
head 1.47801 0.586282 0.101902
lclavicle 0 0 0
lhumerus -58.5464 -45.4362 115.038
lradius 55.0983 -0 0
lwrist 25.31 0 0
lhand 37.2523 24.4244 2.1638e-05
lfingers 0 0 0
lthumb 60.081 38.1193 7.76307e-06
rclavicle 0 0 0
rhumerus 3.75781 -24.7905 -0.16523
rradius 28.0397 -0 0
rwrist -11.2843 0 0
rhand -31.3212 -44.3458 -6.43587e-05
rfingers 0 0 0
rthumb -4.59331 -74.2757 -6.23957e-05
987
root 1.11732 15.1521 32.486 5.26478 -4.60023 4.09618
lfemur 8.71643 1.65883 5.18715
ltibia 0 0 0
lfoot -30.1317 -11.6344 -5.37166e-06
ltoes -33.9067 0 0
rfemur -32.7807 -15.6026 -6.25379
rtibia 50.6795 -0 0
rfoot -22.75 4.84572 8.43441e-05
rtoes -42.3565 0 0
lowerback -1.45491 -0.380315 0.629858
upperback -0.720669 -0.51199 -5.87071
thorax 0.0145007 -0.272451 -6.45241
lowerneck -6.72493 1.16705 5.84657
upperneck 1.15008 0.967188 3.39218
head 1.50604 0.590372 0.107866
lclavicle 0 0 0
lhumerus -58.4947 -45.4366 115.061
lradius 55.0886 -0 0
lwrist 25.2467 0 0
lhand 37.2426 24.4094 1.76816e-05
lfingers 0 0 0
lthumb 60.0727 38.113 6.34364e-06
rclavicle 0 0 0
rhumerus 3.75513 -24.71 -0.186364
rradius 28.0083 -0 0
rwrist -11.2121 0 0
rhand -31.3292 -44.2915 -5.25911e-05
rfingers 0 0 0
rthumb -4.601 -74.2212 -5.0987e-05
988
root 1.11925 15.1533 32.4828 5.22767 -4.57996 4.08018
lfemur 8.71828 1.62704 5.19194
ltibia 0 0 0
lfoot -30.1331 -11.6116 -3.68103e-06
ltoes -33.9287 0 0
rfemur -32.7091 -15.6249 -6.24722
rtibia 50.5948 -0 0
rfoot -22.7691 4.81778 5.77984e-05
rtoes -42.4716 0 0
lowerback -1.43943 -0.359472 0.622595
upperback -0.715355 -0.484029 -5.85224
thorax 0.0148676 -0.258148 -6.428
lowerneck -6.7673 1.17286 5.83731
upperneck 1.20328 0.969576 3.40262
head 1.53065 0.593961 0.113106
lclavicle 0 0 0
lhumerus -58.4494 -45.4369 115.081
lradius 55.0802 -0 0
lwrist 25.1911 0 0
lhand 37.2341 24.3962 1.21166e-05
lfingers 0 0 0
lthumb 60.0655 38.1075 4.3471e-06
rclavicle 0 0 0
rhumerus 3.75275 -24.6394 -0.204915
rradius 27.9808 -0 0
rwrist -11.1486 0 0
rhand -31.3361 -44.2438 -3.6039e-05
rfingers 0 0 0
rthumb -4.60774 -74.1733 -3.49398e-05
989
root 1.1207 15.1542 32.4805 5.19813 -4.56384 4.06745
lfemur 8.71975 1.60174 5.19575
ltibia 0 0 0
lfoot -30.1343 -11.5935 -1.91171e-06
ltoes -33.9461 0 0
rfemur -32.6521 -15.6426 -6.24202
rtibia 50.5275 -0 0
rfoot -22.7843 4.79555 3.00171e-05
rtoes -42.5632 0 0
lowerback -1.42711 -0.342887 0.616821
upperback -0.711121 -0.461783 -5.83754
thorax 0.0151639 -0.246768 -6.40859
lowerneck -6.80102 1.17749 5.82993
upperneck 1.24562 0.971469 3.41094
head 1.55024 0.596816 0.117275
lclavicle 0 0 0
lhumerus -58.4133 -45.4372 115.097
lradius 55.0735 -0 0
lwrist 25.1469 0 0
lhand 37.2274 24.3856 6.29266e-06
lfingers 0 0 0
lthumb 60.0597 38.1031 2.25763e-06
rclavicle 0 0 0
rhumerus 3.75085 -24.5831 -0.21967
rradius 27.9589 -0 0
rwrist -11.0982 0 0
rhand -31.3417 -44.2059 -1.87165e-05
rfingers 0 0 0
rthumb -4.61311 -74.1352 -1.81456e-05
990
root 1.12162 15.1547 32.479 5.17863 -4.55319 4.05904
lfemur 8.72072 1.58503 5.19827
ltibia 0 0 0
lfoot -30.1351 -11.5815 -5.36805e-07
ltoes -33.9576 0 0
rfemur -32.6145 -15.6544 -6.23859
rtibia 50.483 -0 0
rfoot -22.7944 4.78087 8.42874e-06
rtoes -42.6237 0 0
lowerback -1.41897 -0.331931 0.613008
upperback -0.708321 -0.44709 -5.82783
thorax 0.0153617 -0.239251 -6.39576
lowerneck -6.82329 1.18054 5.82506
upperneck 1.27358 0.972716 3.41643
head 1.56318 0.598701 0.12003
lclavicle 0 0 0
lhumerus -58.3895 -45.4374 115.108
lradius 55.069 -0 0
lwrist 25.1176 0 0
lhand 37.2229 24.3787 1.76697e-06
lfingers 0 0 0
lthumb 60.0559 38.1002 6.33938e-07
rclavicle 0 0 0
rhumerus 3.74958 -24.546 -0.229414
rradius 27.9444 -0 0
rwrist -11.0648 0 0
rhand -31.3454 -44.1808 -5.25557e-06
rfingers 0 0 0
rthumb -4.61666 -74.1101 -5.09527e-06
991
root 1.12939 15.1592 32.4621 5.17158 -4.54935 4.056
lfemur 8.72107 1.579 5.19918
ltibia -1.11319e-14 0 0
lfoot -30.1354 -11.5772 0
ltoes -33.9618 0 0
rfemur -32.6009 -15.6586 -6.23735
rtibia 50.4669 0 0
rfoot -22.798 4.77557 0
rtoes -42.6455 0 0
lowerback -1.41603 -0.327975 0.611632
upperback -0.707309 -0.441784 -5.82432
thorax 0.0154336 -0.236537 -6.39113
lowerneck -6.83133 1.18164 5.8233
upperneck 1.28368 0.973166 3.41841
head 1.56785 0.599381 0.121025
lclavicle 2.33572e-15 3.97569e-14 0
lhumerus -58.3809 -45.4375 115.112
lradius 55.0674 0 0
lwrist 25.1071 0 0
lhand 37.2213 24.3762 0
lfingers 7.12502 0 0
lthumb 60.0545 38.0991 0
rclavicle 2.33572e-15 3.97569e-14 0
rhumerus 3.74912 -24.5326 -0.232932
rradius 27.9392 0 0
rwrist -11.0528 0 0
rhand -31.3467 -44.1718 0
rfingers 7.12502 0 0
rthumb -4.61794 -74.101 0
992
root 1.13127 15.1603 32.4577 5.16219 -4.50891 4.03864
lfemur 8.70392 1.53984 5.21612
ltibia 0 0 0
lfoot -30.137 -11.5384 -8.60984e-06
ltoes -33.9845 0 0
rfemur -32.5647 -15.6675 -6.2259
rtibia 50.446 -0 0
rfoot -22.7941 4.74638 -1.51676e-05
rtoes -42.677 0 0
lowerback -1.41519 -0.327483 0.607394
upperback -0.701384 -0.440755 -5.82087
thorax 0.0212494 -0.235777 -6.38501
lowerneck -6.83966 1.1767 5.83425
upperneck 1.28862 0.964716 3.42076
head 1.5709 0.595554 0.119685
lclavicle 0 0 0
lhumerus -58.3897 -45.4695 115.129
lradius 55.0766 -0 0
lwrist 25.1257 0 0
lhand 37.2161 24.384 -5.51814e-06
lfingers 0 0 0
lthumb 60.05 38.1116 -7.55824e-06
rclavicle 0 0 0
rhumerus 3.72886 -24.4947 -0.232833
rradius 27.9389 -0 0
rwrist -11.0504 0 0
rhand -31.3322 -44.1349 7.19925e-05
rfingers 0 0 0
rthumb -4.60396 -74.0644 6.89584e-05
993
root 1.13286 15.1613 32.4534 5.14872 -4.45101 4.01377
lfemur 8.67933 1.48376 5.2404
ltibia 0 0 0
lfoot -30.1394 -11.4829 -1.89968e-05
ltoes -34.0171 0 0
rfemur -32.5129 -15.6803 -6.2095
rtibia 50.4161 -0 0
rfoot -22.7886 4.70457 -3.34659e-05
rtoes -42.7222 0 0
lowerback -1.41398 -0.326778 0.601325
upperback -0.692899 -0.439283 -5.81592
thorax 0.0295784 -0.23469 -6.37625
lowerneck -6.85159 1.16963 5.84994
upperneck 1.29568 0.952614 3.42412
head 1.57527 0.590073 0.117765
lclavicle 0 0 0
lhumerus -58.4022 -45.5153 115.153
lradius 55.0899 -0 0
lwrist 25.1522 0 0
lhand 37.2086 24.3952 -1.21752e-05
lfingers 0 0 0
lthumb 60.0436 38.1296 -1.66765e-05
rclavicle 0 0 0
rhumerus 3.69985 -24.4403 -0.232717
rradius 27.9384 -0 0
rwrist -11.047 0 0
rhand -31.3115 -44.082 0.000158844
rfingers 0 0 0
rthumb -4.58395 -74.0119 0.00015215
